<svg xmlns="http://www.w3.org/2000/svg" viewBox="0 0 400 560"><defs><linearGradient id="light" x2="1" y2="1"><stop stop-color="#fff" stop-opacity=".09"/><stop offset=".5" stop-color="#fff" stop-opacity="0"/><stop offset="1" stop-color="#000" stop-opacity=".12"/></linearGradient><pattern id="paper" width="7" height="7" patternUnits="userSpaceOnUse"><circle cx="1" cy="1" r=".45" fill="#fff" opacity=".13"/></pattern></defs><rect width="400" height="560" fill="#59382f"/><rect width="400" height="560" fill="url(#light)"/><rect width="400" height="560" fill="url(#paper)"/><path d="M16 0V560" stroke="#000" stroke-opacity=".18" stroke-width="6"/><path d="M20 0V560" stroke="#fff" stroke-opacity=".12"/><path d="M38 57H362M38 506H362" stroke="#dec1a1" opacity=".35"/><g fill="none" stroke="#dec1a1" stroke-width="2" stroke-linejoin="round" stroke-linecap="round" opacity=".7" style="--bg:#59382f"><path d="M37 448L178 298H222L365 448M121 448L185 304M278 448L215 304"/><path d="M75 408H325M108 373H292M139 341H261"/><rect x="61" y="277" width="37" height="48" rx="17"/><rect x="118" y="277" width="37" height="48" rx="17"/><rect x="175" y="277" width="37" height="48" rx="17"/><rect x="232" y="277" width="37" height="48" rx="17"/><rect x="289" y="277" width="37" height="48" rx="17"/></g></svg>